# xmcd
#
# Track frame offsets: 
#        150
#        13443
#        28001
#        37987
#        50805
#        63896
#        73066
#        86119
#        97003
#        111433
#        122399
#        133577
#        144322
#        155938
#        167398
#        179777
#        193692
#        204725
#        214764
#        224759
#        236984
#
# Disc length: 3393 seconds
#
# Revision: 8
# Processed by: cddbd v1.5.2PL0 Copyright (c) Steve Scherf et al.
# Submitted via: ExactAudioCopyFreeDBPlugin 1.0
#
DISCID=500d3f15
DTITLE=Bert Kaempfert - The Bert Kaempfert Story 
DYEAR=2002
DGENRE=Easy Listening
TTITLE0=Bye Bye Blues
TTITLE1=Wonderland By Night
TTITLE2=Brenda Lee  - Remember When
TTITLE3=Midnight Blues
TTITLE4=Ducky
TTITLE5=Kaempfert, Bert - Sweet Maria
TTITLE6=Kaempfert, Bert - Hold Me
TTITLE7=Martin, Dean - Welcome To My Heart
TTITLE8=Kaempfert, Bert - Blue Midnight
TTITLE9=Afrikaan Beat
TTITLE10=Morgan, Jane - Now And Forever
TTITLE11=Catalania
TTITLE12=Wayne Newton - Danke Schoen
TTITLE13=Mister Sandman
TTITLE14=Jones, Jack - Lady
TTITLE15=Kaempfert, Bert - Love After Midnight
TTITLE16=Damone, Vic - It Makes No Difference
TTITLE17=Treat Your Trumpet
TTITLE18=Matt Monro - The Lady Smiles
TTITLE19=Kaempfert, Bert - Bert's Tune
TTITLE20=Al Martino - Spanish Eyes (Moon Over Neaples)
EXTD=Kaempfert, Bert - A Musical Biography - [Polydor 2002]\n YEAR: 20
EXTD=02
EXTT0=
EXTT1=
EXTT2=
EXTT3=
EXTT4=
EXTT5=
EXTT6=
EXTT7=
EXTT8=
EXTT9=
EXTT10=
EXTT11=
EXTT12=
EXTT13=
EXTT14=
EXTT15=
EXTT16=
EXTT17=
EXTT18=
EXTT19=
EXTT20=
PLAYORDER=
